<svg width="20" height="20" viewBox="0 0 20 20" fill="none" xmlns="http://www.w3.org/2000/svg">
<path d="M10.4526 13.275L17.0901 6.30875C17.2009 6.19251 17.2627 6.03808 17.2627 5.8775C17.2627 5.71691 17.2009 5.56248 17.0901 5.44625L17.0826 5.43875C17.0289 5.3822 16.9642 5.33718 16.8925 5.30641C16.8209 5.27564 16.7437 5.25978 16.6657 5.25978C16.5877 5.25978 16.5105 5.27564 16.4389 5.30641C16.3672 5.33718 16.3025 5.3822 16.2488 5.43875L9.99883 11.9987L3.75133 5.43875C3.69761 5.3822 3.63295 5.33718 3.56129 5.30641C3.48962 5.27564 3.41244 5.25978 3.33445 5.25978C3.25646 5.25978 3.17928 5.27564 3.10762 5.30641C3.03595 5.33718 2.97129 5.3822 2.91758 5.43875L2.91008 5.44625C2.79927 5.56248 2.73746 5.71691 2.73746 5.8775C2.73746 6.03808 2.79927 6.19251 2.91008 6.30875L9.54758 13.275C9.60595 13.3363 9.67615 13.385 9.75394 13.4184C9.83172 13.4517 9.91546 13.4689 10.0001 13.4689C10.0847 13.4689 10.1684 13.4517 10.2462 13.4184C10.324 13.385 10.3942 13.3363 10.4526 13.275Z" fill="#47546F"/>
</svg>
