<svg width="20" height="20" viewBox="0 0 20 20" fill="none" xmlns="http://www.w3.org/2000/svg">
<path d="M5.00016 18.3333C4.55814 18.3333 4.13421 18.1577 3.82165 17.8451C3.50909 17.5326 3.3335 17.1087 3.3335 16.6666V3.3333C3.3335 2.89127 3.50909 2.46734 3.82165 2.15478C4.13421 1.84222 4.55814 1.66663 5.00016 1.66663H11.6668C11.9306 1.6662 12.1919 1.71796 12.4356 1.81894C12.6793 1.91991 12.9006 2.06809 13.0868 2.25496L16.0768 5.24496C16.2642 5.43122 16.4128 5.65275 16.5141 5.89676C16.6153 6.14078 16.6673 6.40244 16.6668 6.66663V16.6666C16.6668 17.1087 16.4912 17.5326 16.1787 17.8451C15.8661 18.1577 15.4422 18.3333 15.0002 18.3333H5.00016Z" stroke="#47546F" stroke-width="2" stroke-linecap="round" stroke-linejoin="round"/>
<path d="M11.667 1.66663V5.83329C11.667 6.05431 11.7548 6.26627 11.9111 6.42255C12.0674 6.57883 12.2793 6.66663 12.5003 6.66663H16.667" stroke="#47546F" stroke-width="2" stroke-linecap="round" stroke-linejoin="round"/>
</svg>
