<svg width="16" height="16" viewBox="0 0 16 16" fill="none" xmlns="http://www.w3.org/2000/svg">
<path d="M7.99984 7.99996C7.2665 7.99996 6.63873 7.73885 6.1165 7.21663C5.59428 6.6944 5.33317 6.06663 5.33317 5.33329C5.33317 4.59996 5.59428 3.97218 6.1165 3.44996C6.63873 2.92774 7.2665 2.66663 7.99984 2.66663C8.73317 2.66663 9.36095 2.92774 9.88317 3.44996C10.4054 3.97218 10.6665 4.59996 10.6665 5.33329C10.6665 6.06663 10.4054 6.6944 9.88317 7.21663C9.36095 7.73885 8.73317 7.99996 7.99984 7.99996ZM2.6665 12V11.4666C2.6665 11.0888 2.76384 10.7417 2.9585 10.4253C3.15317 10.1088 3.41139 9.86707 3.73317 9.69996C4.42206 9.35552 5.12206 9.09729 5.83317 8.92529C6.54428 8.75329 7.2665 8.66707 7.99984 8.66663C8.73317 8.66618 9.45539 8.7524 10.1665 8.92529C10.8776 9.09818 11.5776 9.3564 12.2665 9.69996C12.5887 9.86663 12.8472 10.1084 13.0418 10.4253C13.2365 10.7422 13.3336 11.0893 13.3332 11.4666V12C13.3332 12.3666 13.2027 12.6806 12.9418 12.942C12.6809 13.2033 12.3669 13.3337 11.9998 13.3333H3.99984C3.63317 13.3333 3.31939 13.2028 3.0585 12.942C2.79761 12.6811 2.66695 12.3671 2.6665 12ZM3.99984 12H11.9998V11.4666C11.9998 11.3444 11.9694 11.2333 11.9085 11.1333C11.8476 11.0333 11.7669 10.9555 11.6665 10.9C11.0665 10.6 10.4609 10.3751 9.84984 10.2253C9.23873 10.0755 8.62206 10.0004 7.99984 9.99996C7.37762 9.99952 6.76095 10.0746 6.14984 10.2253C5.53873 10.376 4.93317 10.6008 4.33317 10.9C4.23317 10.9555 4.1525 11.0333 4.09117 11.1333C4.02984 11.2333 3.99939 11.3444 3.99984 11.4666V12ZM7.99984 6.66663C8.3665 6.66663 8.6805 6.53618 8.94184 6.27529C9.20317 6.0144 9.33362 5.7004 9.33317 5.33329C9.33273 4.96618 9.20228 4.6524 8.94184 4.39196C8.68139 4.13151 8.36739 4.00085 7.99984 3.99996C7.63228 3.99907 7.3185 4.12974 7.0585 4.39196C6.7985 4.65418 6.66784 4.96796 6.6665 5.33329C6.66517 5.69863 6.79584 6.01263 7.0585 6.27529C7.32117 6.53796 7.63495 6.6684 7.99984 6.66663Z" fill="black"/>
</svg>
