<svg width="16" height="16" viewBox="0 0 16 16" fill="none" xmlns="http://www.w3.org/2000/svg">
<path d="M4.66673 6.66661H6.66673V4.66661L4.3334 2.33328C5.07982 1.97679 5.9184 1.86048 6.73366 2.00036C7.54893 2.14024 8.30078 2.52942 8.88568 3.11433C9.47059 3.69923 9.85977 4.45108 9.99965 5.26634C10.1395 6.08161 10.0232 6.92019 9.66673 7.66661L13.6667 11.6666C13.9319 11.9318 14.0809 12.2915 14.0809 12.6666C14.0809 13.0417 13.9319 13.4014 13.6667 13.6666C13.4015 13.9318 13.0418 14.0808 12.6667 14.0808C12.2917 14.0808 11.9319 13.9318 11.6667 13.6666L7.66673 9.66661C6.92031 10.0231 6.08173 10.1394 5.26647 9.99953C4.4512 9.85965 3.69935 9.47047 3.11445 8.88556C2.52954 8.30066 2.14036 7.54881 2.00048 6.73354C1.8606 5.91828 1.97691 5.0797 2.3334 4.33328L4.66673 6.66661Z" stroke="black" stroke-linecap="round" stroke-linejoin="round"/>
</svg>
