<svg width="24" height="24" viewBox="0 0 24 24" fill="none" xmlns="http://www.w3.org/2000/svg">
<path d="M23.1759 16.1747C23.1147 16.0474 23.0187 15.94 22.8991 15.8649C22.7796 15.7898 22.6412 15.7499 22.5 15.75H13.5V13.5H20.25C20.3953 13.5 20.5374 13.4578 20.6591 13.3785C20.7809 13.2992 20.877 13.1863 20.9358 13.0534C20.9946 12.9206 21.0135 12.7735 20.9903 12.6301C20.967 12.4867 20.9027 12.3531 20.805 12.2456L13.5 4.21029V0.749973C13.4991 0.595379 13.4506 0.444821 13.3609 0.318903C13.2712 0.192985 13.1448 0.09786 12.9989 0.046547C12.8531 -0.0047661 12.695 -0.00976006 12.5462 0.0322485C12.3974 0.0742571 12.2653 0.161216 12.1678 0.281223L2.41779 12.2812C2.32965 12.3913 2.27434 12.524 2.25819 12.6641C2.24204 12.8042 2.26572 12.946 2.32651 13.0733C2.38729 13.2005 2.48272 13.308 2.60185 13.3835C2.72097 13.459 2.85896 13.4994 2.99998 13.5H12V15.75H1.49998C1.35864 15.7499 1.22015 15.7897 1.10048 15.8649C0.980804 15.9401 0.884814 16.0476 0.823573 16.175C0.762331 16.3024 0.738331 16.4445 0.754337 16.5849C0.770344 16.7253 0.825706 16.8584 0.914044 16.9687L3.68904 20.4375C3.82926 20.6134 4.00739 20.7553 4.21015 20.8527C4.41291 20.9501 4.63504 21.0004 4.85998 21H19.14C19.3649 21.0004 19.5871 20.9501 19.7898 20.8527C19.9926 20.7553 20.1707 20.6134 20.3109 20.4375L23.0859 16.9687C23.1742 16.8583 23.2296 16.7252 23.2455 16.5847C23.2614 16.4442 23.2373 16.302 23.1759 16.1747ZM18.555 12H13.5V6.43966L18.555 12ZM4.57592 12L12 2.86216V12H4.57592ZM19.14 19.5H4.85998L3.05998 17.25H20.94L19.14 19.5Z" fill="black"/>
</svg>
